# xmcd
#
# Track frame offsets: 
#        150
#        31341
#        69872
#        95168
#        137639
#        170556
#        211593
#
# Disc length: 3155 seconds
#
# Revision: 2
# Processed by: cddbd v1.5.2PL0 Copyright (c) Steve Scherf et al.
# Submitted via: ExactAudioCopy v0.99pb5
#
DISCID=590c5107
DTITLE=Tony O'Connor - Memento
DYEAR=2005
DGENRE=New Age
TTITLE0=Memoir
TTITLE1=In Your Hands
TTITLE2=Remembering You
TTITLE3=September Moon
TTITLE4=Betty's Song
TTITLE5=Once In A Dream
TTITLE6=Gentle Wind
EXTD=YEAR: 2005
EXTT0=
EXTT1=
EXTT2=
EXTT3=
EXTT4=
EXTT5=
EXTT6=
PLAYORDER=
